<?xml version="1.0" encoding="UTF-8"?>
<svg version="1.1" xmlns="http://www.w3.org/2000/svg" width="70" height="70">
<path d="M0 0 C23.1 0 46.2 0 70 0 C70 23.1 70 46.2 70 70 C46.9 70 23.8 70 0 70 C0 46.9 0 23.8 0 0 Z " fill="#F0D2B7" transform="translate(0,0)"/>
<path d="M0 0 C2.3828125 -0.29296875 2.3828125 -0.29296875 5.125 -0.1875 C6.03507812 -0.16042969 6.94515625 -0.13335937 7.8828125 -0.10546875 C8.58148438 -0.07066406 9.28015625 -0.03585937 10 0 C9.25 4.75 9.25 4.75 7 7 C3.375 7.125 3.375 7.125 0 7 C0 7.66 0 8.32 0 9 C0.804375 8.87625 1.60875 8.7525 2.4375 8.625 C7.68144941 9.17699467 11.10034898 11.52953259 15 15 C18.50109648 19.45339472 19.66800312 24.14573089 19.38671875 29.76171875 C18.49510015 34.9222991 16.2858212 38.74714857 12.5625 42.375 C5.48586751 46.86262061 -1.87711447 46.96680465 -10 46 C-15.52620888 43.72597758 -19.26948797 39.21059094 -22.15234375 34.0703125 C-23.89530707 29.8133053 -23.72746265 26.26797178 -22.3359375 21.9296875 C-19.51251975 15.47265387 -14.7369144 11.8246096 -9 8 C-9.495 7.21625 -9.99 6.4325 -10.5 5.625 C-12 3 -12 3 -12 1 C-8.05272412 0.82057837 -5.4019487 0.90649311 -2 3 C-1.34 2.01 -0.68 1.02 0 0 Z " fill="#DD8124" transform="translate(37,11)"/>
<path d="M0 0 C2.3828125 -0.29296875 2.3828125 -0.29296875 5.125 -0.1875 C6.03507812 -0.16042969 6.94515625 -0.13335937 7.8828125 -0.10546875 C8.58148438 -0.07066406 9.28015625 -0.03585937 10 0 C9.25 4.75 9.25 4.75 7 7 C3.375 7.125 3.375 7.125 0 7 C0 7.66 0 8.32 0 9 C0.886875 8.938125 1.77375 8.87625 2.6875 8.8125 C6.38008752 9.02151439 8.12222868 9.71471101 11 12 C11 12.99 11 13.98 11 15 C9.68 15 8.36 15 7 15 C7.33 16.98 7.66 18.96 8 21 C6.68 20.67 5.36 20.34 4 20 C4.33 20.99 4.66 21.98 5 23 C4.814375 23.680625 4.62875 24.36125 4.4375 25.0625 C4.293125 25.701875 4.14875 26.34125 4 27 C4.66 27.66 5.32 28.32 6 29 C2.32589215 30.17571451 -1.16929183 30.07366746 -5 30 C-5.53012738 28.71211992 -6.0488329 27.41953322 -6.5625 26.125 C-6.85253906 25.40570313 -7.14257812 24.68640625 -7.44140625 23.9453125 C-8 22 -8 22 -7 20 C-8.98 20.66 -10.96 21.32 -13 22 C-13.99 21.01 -14.98 20.02 -16 19 C-16.99 19.33 -17.98 19.66 -19 20 C-18.77621648 16.08378834 -18.06580621 15.0615145 -15.125 12.3125 C-13.11783897 10.82720083 -11.07759627 9.38506418 -9 8 C-9.495 7.21625 -9.99 6.4325 -10.5 5.625 C-12 3 -12 3 -12 1 C-8.05272412 0.82057837 -5.4019487 0.90649311 -2 3 C-1.34 2.01 -0.68 1.02 0 0 Z " fill="#EB8B25" transform="translate(37,11)"/>
<path d="M0 0 C2.3828125 -0.29296875 2.3828125 -0.29296875 5.125 -0.1875 C6.03507812 -0.16042969 6.94515625 -0.13335937 7.8828125 -0.10546875 C8.58148438 -0.07066406 9.28015625 -0.03585937 10 0 C9.25 4.75 9.25 4.75 7 7 C3.375 7.125 3.375 7.125 0 7 C0 7.66 0 8.32 0 9 C0.886875 8.938125 1.77375 8.87625 2.6875 8.8125 C6.34485017 9.01951982 8.04777151 9.916074 11 12 C9 13 9 13 5.875 12.0625 C4.451875 11.5365625 4.451875 11.5365625 3 11 C3 11.99 3 12.98 3 14 C-0.37817425 14.84454356 -2.67465243 15.10844919 -6 14 C-6 13.01 -6 12.02 -6 11 C-8.31 11.33 -10.62 11.66 -13 12 C-12 10 -12 10 -9 8 C-9.495 7.21625 -9.99 6.4325 -10.5 5.625 C-12 3 -12 3 -12 1 C-8.05272412 0.82057837 -5.4019487 0.90649311 -2 3 C-1.34 2.01 -0.68 1.02 0 0 Z " fill="#645836" transform="translate(37,11)"/>
<path d="M0 0 C0.495 1.485 0.495 1.485 1 3 C-2.02576661 8.68844123 -5.89156825 11.96385608 -12 14 C-26.39231221 15.18246697 -26.39231221 15.18246697 -31.4375 11.5 C-32.283125 10.675 -33.12875 9.85 -34 9 C-31 9 -31 9 -28.375 9.5 C-21.90921247 10.45789445 -15.40315041 10.33398967 -9 9 C-8.67 8.34 -8.34 7.68 -8 7 C-8 7.66 -8 8.32 -8 9 C-6.00016466 8.20882096 -6.00016466 8.20882096 -4 7 C-3.67 6.01 -3.34 5.02 -3 4 C-2.34 4 -1.68 4 -1 4 C-0.67 2.68 -0.34 1.36 0 0 Z " fill="#B6622C" transform="translate(54,43)"/>
<path d="M0 0 C4.16128852 1.73969835 5.38122447 3.71295835 7.25 7.69140625 C8.47441429 11.4603065 8.32605461 15.08734462 8 19 C7.67 19 7.34 19 7 19 C6.34 14.71 5.68 10.42 5 6 C4.34 6 3.68 6 3 6 C3 6.66 3 7.32 3 8 C2.01 8 1.02 8 0 8 C0 7.34 0 6.68 0 6 C-1.32 5.34 -2.64 4.68 -4 4 C-4 3.34 -4 2.68 -4 2 C-2.68 2 -1.36 2 0 2 C0 1.34 0 0.68 0 0 Z " fill="#C0894E" transform="translate(48,24)"/>
<path d="M0 0 C2.64 0 5.28 0 8 0 C7.25 4.75 7.25 4.75 5 7 C1.375 7.125 1.375 7.125 -2 7 C-1.67 6.21625 -1.34 5.4325 -1 4.625 C0.11866511 2.15667503 0.11866511 2.15667503 0 0 Z " fill="#5E7E42" transform="translate(39,11)"/>
<path d="M0 0 C4.21878192 -0.19622241 7.17010894 0.19769832 11 2 C11 2.66 11 3.32 11 4 C10.34 4 9.68 4 9 4 C9 4.66 9 5.32 9 6 C7.02 6.33 5.04 6.66 3 7 C0 2.25 0 2.25 0 0 Z " fill="#597040" transform="translate(25,12)"/>
<path d="M0 0 C0.66 0 1.32 0 2 0 C3 3 3 3 2.22265625 5.04296875 C1.83980469 5.75066406 1.45695312 6.45835938 1.0625 7.1875 C0.68222656 7.90292969 0.30195312 8.61835938 -0.08984375 9.35546875 C-0.39019531 9.89816406 -0.69054688 10.44085938 -1 11 C-1.66 10.34 -2.32 9.68 -3 9 C-4.31747324 8.30251417 -5.64914193 7.63040043 -7 7 C-5.68 7 -4.36 7 -3 7 C-3 6.34 -3 5.68 -3 5 C-2.34 5 -1.68 5 -1 5 C-0.67 3.35 -0.34 1.7 0 0 Z " fill="#385329" transform="translate(37,11)"/>
<path d="M0 0 C0.66 0 1.32 0 2 0 C2.24900646 1.93505023 2.47356242 3.87325934 2.6875 5.8125 C2.87892578 7.43091797 2.87892578 7.43091797 3.07421875 9.08203125 C3 12 3 12 0 15 C0 10.05 0 5.1 0 0 Z " fill="#F2D6BF" transform="translate(34,0)"/>
<path d="M0 0 C0.33 1.32 0.66 2.64 1 4 C0.34 4 -0.32 4 -1 4 C-1.33 5.32 -1.66 6.64 -2 8 C-3.32 8.33 -4.64 8.66 -6 9 C-4.47291037 5.56404834 -2.40072955 2.88087546 0 0 Z " fill="#E26E24" transform="translate(52,43)"/>
<path d="M0 0 C3.63 0 7.26 0 11 0 C10.34 1.32 9.68 2.64 9 4 C6.36 4 3.72 4 1 4 C0.67 2.68 0.34 1.36 0 0 Z " fill="#180E07" transform="translate(30,40)"/>
<path d="M0 0 C1.9375 0.3125 1.9375 0.3125 4 1 C4.33 1.99 4.66 2.98 5 4 C2.03 3.505 2.03 3.505 -1 3 C-0.67 2.01 -0.34 1.02 0 0 Z " fill="#60A23B" transform="translate(29,14)"/>
<path d="M0 0 C0.33 0 0.66 0 1 0 C1.1953125 6.0546875 1.1953125 6.0546875 1 8 C0.34 8.66 -0.32 9.32 -1 10 C-2.46726798 6.18510326 -1.43336419 3.70988378 0 0 Z " fill="#DA7C33" transform="translate(54,35)"/>
</svg>
